<svg width="457" height="178" viewBox="0 0 457 178" fill="none" xmlns="http://www.w3.org/2000/svg">
<path d="M132.736 36.6699C139.4 41.6696 146.065 46.9256 152.666 51.6048C159.266 56.5404 165.867 59.6812 172.275 66.7961C173.685 68.1421 175.607 68.078 175.671 66.4115C176.184 45.0027 175.159 23.9144 175.671 2.63378C175.735 0.903129 173.685 0.903135 172.275 2.2492C165.867 9.3641 159.33 12.5049 152.666 17.4405C146.065 22.1196 139.336 28.6577 132.736 33.6573C132.46 33.8009 132.23 34.0172 132.069 34.2828C131.908 34.5484 131.822 34.853 131.822 35.1636C131.822 35.4742 131.908 35.7789 132.069 36.0445C132.23 36.31 132.46 36.5264 132.736 36.6699Z" fill="white"/>
<path d="M268.976 36.3497C262.247 41.4134 255.518 46.7336 248.854 51.4128C242.189 56.4124 237.191 59.8737 229.116 67.3732C227.706 68.7193 225.656 68.7193 225.72 66.9886C226.04 45.6439 226.681 23.1454 225.72 1.35204C225.656 -0.378609 227.706 -0.378603 229.116 0.967459C236.486 7.89007 242.189 11.9282 248.854 16.9279C255.518 21.9276 262.247 28.2092 268.976 33.273C269.253 33.4231 269.484 33.6454 269.645 33.9161C269.806 34.1869 269.891 34.4962 269.891 34.8113C269.891 35.1264 269.806 35.4357 269.645 35.7065C269.484 35.9773 269.253 36.1995 268.976 36.3497Z" fill="white"/>
<path d="M351.066 36.6699C344.401 41.6696 337.737 46.9256 331.136 51.6048C324.536 56.5404 319.345 60.6427 311.527 66.7961C309.989 68.0139 308.13 68.078 308.13 66.4115C308.579 44.8745 308.771 23.5939 308.13 2.63378C308.066 0.903129 310.117 0.903135 311.527 2.2492C318.512 8.65902 324.023 12.6331 330.688 17.5046C337.352 22.376 344.401 28.5936 351.066 33.6573C351.341 33.8009 351.572 34.0172 351.733 34.2828C351.894 34.5484 351.979 34.853 351.979 35.1636C351.979 35.4742 351.894 35.7789 351.733 36.0445C351.572 36.31 351.341 36.5264 351.066 36.6699Z" fill="white"/>
<path d="M453.983 121.536C452.701 122.69 450.843 123.908 449.497 124.997C443.089 130.189 427.068 134.933 416.43 134.099C408.612 133.458 403.229 129.292 400.986 123.331C400.858 122.946 400.73 122.498 400.602 122.049C399.192 116.729 395.347 114.806 392.207 116.216C390.22 117.113 388.618 119.87 389.323 122.818C390.092 126.151 390.092 129.997 387.785 136.022C383.364 147.752 366.894 160.764 350.681 164.482C350.553 164.482 350.489 164.418 350.617 164.29C357.73 153.906 359.268 136.984 358.179 129.356C357.666 125.767 356.961 120.575 353.437 119.036C349.656 117.37 347.734 119.613 344.978 123.01C337.352 132.241 321.908 145.06 306.144 152.431C291.597 159.29 283.458 160.123 276.73 160.828C272.436 161.277 265.451 161.085 260.965 159.226V159.162C262.584 156.47 263.956 153.639 265.067 150.701C268.655 140.894 268.399 127.113 260.581 119.549C251.353 110.575 241.036 114.614 236.55 120.511C233.025 125.126 232.384 129.484 232.897 136.535C232.897 136.599 232.833 136.663 232.769 136.599C232.064 136.215 229.821 137.24 228.796 138.202C219.504 146.855 211.109 150.893 201.881 154.739C191.82 158.969 176.825 163.456 166.123 161.982C153.883 160.38 152.345 146.342 151.448 138.394C150.743 132.241 145.36 126.92 136.388 134.933C129.852 140.766 122.803 148.201 120.176 151.919C120.047 152.175 119.855 151.919 119.919 151.79C120.624 149.291 121.201 135.702 119.535 129.997C117.74 123.844 112.87 123.908 108.192 126.087C105.693 127.241 95.3114 133.715 80.6364 150.957C80.3801 151.278 80.3801 151.149 80.4442 150.637C82.2385 140.445 81.7258 131.343 81.2132 128.972C80.1238 124.292 75.9584 122.562 71.6008 125.895C71.6008 125.895 61.0271 133.33 55.5801 136.599C50.139 139.912 44.4877 142.867 38.6622 145.445C35.8053 146.713 32.8733 147.804 29.8829 148.714C28.4117 149.154 26.9132 149.496 25.3971 149.739C24.6281 149.803 23.9232 149.996 23.1542 149.996L22.0648 150.06H20.9113C17.8874 150.142 14.8671 149.797 11.9397 149.034C10.5314 148.674 9.17474 148.135 7.90246 147.432C7.2821 147.107 6.68281 146.743 6.10814 146.342C5.83639 146.148 5.57936 145.933 5.33915 145.701C5.21099 145.573 5.08282 145.509 5.01874 145.381L4.89057 145.252L4.82649 145.188C4.63278 144.928 4.38433 144.713 4.09867 144.56C3.81301 144.406 3.4971 144.317 3.17321 144.298C2.84933 144.28 2.52537 144.333 2.22419 144.454C1.92301 144.574 1.65194 144.759 1.4301 144.996C1.06389 145.409 0.856382 145.939 0.844643 146.491C0.832904 147.042 1.0177 147.581 1.36601 148.009C1.44517 148.082 1.51033 148.169 1.55827 148.265C1.62235 148.393 1.75051 148.457 1.8146 148.521C2.00125 148.676 2.1729 148.848 2.32726 149.034C2.67445 149.352 3.03809 149.652 3.41667 149.932C4.1559 150.468 4.92624 150.96 5.72365 151.406C7.30509 152.216 8.95663 152.881 10.658 153.393C14.0002 154.292 17.4507 154.723 20.9113 154.675H22.1929L23.5387 154.611C24.4358 154.547 25.2689 154.419 26.1661 154.29C27.8322 153.97 29.5624 153.649 31.1645 153.201C34.3757 152.302 37.5229 151.189 40.5847 149.868C46.621 147.25 52.4856 144.253 58.1434 140.894C62.0524 138.586 68.8452 133.971 70.1909 133.715C71.5367 133.266 72.4338 133.458 72.6261 135.574C73.331 142.753 69.9346 163.328 65.2566 170.507C63.0777 173.84 63.3982 176.532 66.0256 177.686C69.1015 179.032 71.5367 175.827 73.3951 172.366C86.468 148.073 103.578 135.381 108.064 133.202C109.666 132.433 110.819 133.074 111.14 134.997C113.383 148.073 107.872 164.418 105.821 168.456C104.667 170.635 103.898 173.904 107.103 175.315C111.14 177.045 114.28 172.045 115.241 170.123C118.189 164.418 125.046 154.226 130.749 148.265C133.056 145.893 137.478 140.573 140.874 138.907C142.412 138.138 143.245 138.714 143.63 140.637C144.014 142.56 146.257 152.88 148.244 157.431C150.743 163.136 155.421 167.11 165.867 167.559C176.312 168.007 189.577 163.649 203.675 158.008C215.018 153.457 219.119 150.444 220.209 149.483C220.273 149.419 220.337 149.483 220.337 149.547C219.183 151.726 215.018 161.982 218.286 169.353C222.324 178.455 232.833 177.43 238.28 176.276C242.189 175.443 250.904 171.02 257.954 162.751H258.018C265.323 164.802 273.718 164.674 282.369 163.456C316.461 158.841 340.62 136.086 345.939 130.638C346.965 129.548 347.221 129.292 347.605 129.997C352.732 139.996 346.452 161.213 341.325 166.213C339.082 168.392 340.108 171.469 344.593 171.212C354.847 170.571 390.22 158.264 398.103 131.343C398.12 131.286 398.153 131.234 398.197 131.193C398.241 131.152 398.295 131.124 398.354 131.111C398.412 131.098 398.473 131.101 398.531 131.119C398.588 131.137 398.639 131.17 398.679 131.215C408.484 140.253 429.824 139.163 444.883 130.574C448.076 128.784 451.138 126.77 454.047 124.549L455.585 123.267C457.059 122.369 455.264 120.382 453.983 121.536ZM252.378 161.085C251.731 161.925 251.025 162.718 250.264 163.456C246.611 167.046 236.55 174.417 229.949 170.187C223.99 166.405 230.013 151.726 234.884 145.445C234.948 145.381 235.012 145.381 235.012 145.445C235.282 146.069 235.603 146.669 235.973 147.24C238.921 152.367 244.688 157.688 252.378 160.957C252.378 161.021 252.442 161.085 252.378 161.085ZM255.518 156.662C255.518 156.726 255.454 156.726 255.454 156.662C250.648 154.547 243.983 146.791 242.766 140.509C240.908 130.51 243.086 125.19 247.38 123.523C251.994 121.728 257.505 125.19 259.812 132.817C262.632 141.855 259.235 150.701 255.518 156.662Z" fill="white"/>
</svg>
